<svg width="16" height="16" viewBox="0 0 16 16" fill="none" xmlns="http://www.w3.org/2000/svg">
<path d="M7.87695 0C8.39468 0 8.82081 0.393259 8.87207 0.897461L8.87695 1V6.87891H14.998C15.5502 6.87903 15.998 7.3267 15.998 7.87891C15.998 8.43111 15.5502 8.87878 14.998 8.87891H8.87695V15.002C8.87695 15.5542 8.42924 16.002 7.87695 16.002C7.32467 16.002 6.87695 15.5542 6.87695 15.002V8.87891H1C0.447715 8.87891 0 8.43119 0 7.87891C0 7.32662 0.447715 6.87891 1 6.87891H6.87695V1L6.88184 0.897461C6.9331 0.393259 7.35922 0 7.87695 0Z" fill="white"/>
</svg>
