<svg width="10" height="6" viewBox="0 0 10 6" fill="none" xmlns="http://www.w3.org/2000/svg">
<mask id="mask0_2120_10540" style="mask-type:luminance" maskUnits="userSpaceOnUse" x="0" y="0" width="10" height="6">
<path fill-rule="evenodd" clip-rule="evenodd" d="M1.80003 0.369981C1.6107 0.192192 1.35964 0.095035 1.09995 0.0990681C0.840264 0.103101 0.592335 0.208008 0.408622 0.391591C0.224909 0.575173 0.119827 0.823029 0.11561 1.08271C0.111394 1.34239 0.208373 1.59353 0.386028 1.78298L4.29303 5.68998C4.48056 5.87745 4.73486 5.98277 5.00003 5.98277C5.26519 5.98277 5.5195 5.87745 5.70703 5.68998L9.61403 1.78398C9.70694 1.69114 9.78065 1.5809 9.83096 1.45957C9.88127 1.33824 9.90718 1.20818 9.90723 1.07683C9.90728 0.945486 9.88145 0.815415 9.83123 0.694047C9.78101 0.572679 9.70737 0.462392 9.61453 0.369481C9.52168 0.276571 9.41145 0.202858 9.29012 0.15255C9.16878 0.102242 9.03873 0.0763252 8.90738 0.0762787C8.77603 0.0762323 8.64596 0.102057 8.52459 0.152279C8.40323 0.202501 8.29294 0.276137 8.20003 0.368981L5.00003 3.56998L1.80003 0.368981V0.369981Z" fill="white"/>
</mask>
<g mask="url(#mask0_2120_10540)">
<path d="M5 3.56898L3.586 4.98298L5 6.39698L6.414 4.98298L5 3.56998V3.56898ZM1.8 1.78398C1.61247 1.97145 1.35816 2.07677 1.093 2.07677C0.827835 2.07677 0.573527 1.97145 0.385999 1.78398L3.214 -1.04502C2.65142 -1.60743 1.88849 -1.92338 1.093 -1.92338C0.297507 -1.92338 -0.465418 -1.60743 -1.028 -1.04502L1.8 1.78398ZM1.8 0.368981C1.89298 0.461854 1.96673 0.572143 2.01706 0.693541C2.06738 0.814939 2.09329 0.945066 2.09329 1.07648C2.09329 1.2079 2.06738 1.33802 2.01706 1.45942C1.96673 1.58082 1.89298 1.69111 1.8 1.78398L-1.028 -1.04502C-1.30663 -0.766436 -1.52765 -0.435696 -1.67845 -0.0716863C-1.82925 0.292324 -1.90686 0.682473 -1.90686 1.07648C-1.90686 1.47049 -1.82925 1.86064 -1.67845 2.22465C-1.52765 2.58866 -1.30663 2.9194 -1.028 3.19798L1.8 0.368981ZM5.707 4.27598L1.8 0.368981L-1.028 3.19798L2.879 7.10598L5.707 4.27598ZM4.293 4.27598C4.48053 4.08851 4.73483 3.9832 5 3.9832C5.26516 3.9832 5.51947 4.08851 5.707 4.27598L2.88 7.10498C3.44258 7.66739 4.20551 7.98334 5.001 7.98334C5.79649 7.98334 6.55942 7.66739 7.122 7.10498L4.293 4.27598ZM8.2 0.369981L4.293 4.27598L7.12 7.10498L11.027 3.19798L8.2 0.369981ZM8.2 1.78498C8.10702 1.69211 8.03326 1.58182 7.98294 1.46042C7.93261 1.33902 7.90671 1.2089 7.90671 1.07748C7.90671 0.946066 7.93261 0.815939 7.98294 0.694541C8.03326 0.573143 8.10702 0.462854 8.2 0.369981L11.028 3.19898C11.3066 2.9204 11.5277 2.58966 11.6784 2.22565C11.8292 1.86164 11.9069 1.47149 11.9069 1.07748C11.9069 0.683473 11.8292 0.293324 11.6784 -0.0706862C11.5277 -0.434696 11.3066 -0.765436 11.028 -1.04402L8.2 1.78498ZM9.614 1.78498C9.42647 1.97245 9.17216 2.07777 8.907 2.07777C8.64183 2.07777 8.38753 1.97245 8.2 1.78498L11.028 -1.04402C10.4654 -1.60643 9.70249 -1.92238 8.907 -1.92238C8.11151 -1.92238 7.34858 -1.60643 6.786 -1.04402L9.614 1.78498ZM6.414 4.98498L9.614 1.78498L6.786 -1.04402L3.586 2.15598L6.414 4.98498ZM0.385999 1.78398L3.586 4.98498L6.414 2.15498L3.214 -1.04502L0.385999 1.78398Z" fill="white"/>
</g>
</svg>
