<svg width="6" height="10" viewBox="0 0 6 10" fill="none" xmlns="http://www.w3.org/2000/svg">
<path fill-rule="evenodd" clip-rule="evenodd" d="M5.69049 8.25033C5.78732 8.3442 5.86455 8.4565 5.91769 8.58066C5.97082 8.70482 5.99879 8.83836 5.99996 8.97348C6.00113 9.10861 5.97548 9.24262 5.9245 9.36768C5.87353 9.49275 5.79824 9.60638 5.70305 9.70193C5.60786 9.79748 5.49466 9.87305 5.37006 9.92422C5.24547 9.97539 5.11196 10.0011 4.97735 9.99996C4.84273 9.99879 4.70969 9.97071 4.586 9.91738C4.46231 9.86404 4.35044 9.78651 4.25691 9.68932L0.29684 5.71327C0.106773 5.52243 0 5.26363 0 4.99378C0 4.72393 0.106773 4.46512 0.29684 4.27428L4.25691 0.298235C4.44715 0.107278 4.70517 0 4.97421 0C5.24324 0 5.50126 0.107278 5.6915 0.298235C5.88174 0.489192 5.98861 0.748185 5.98861 1.01824C5.98861 1.28829 5.88174 1.54728 5.6915 1.73824L2.44619 4.99378L5.6915 8.25033H5.69049Z" fill="#6F928E"/>
</svg>
