<svg width="19" height="15" viewBox="0 0 19 15" fill="none" xmlns="http://www.w3.org/2000/svg">
<mask id="mask0_2120_10570" style="mask-type:luminance" maskUnits="userSpaceOnUse" x="1" y="1" width="17" height="13">
<path fill-rule="evenodd" clip-rule="evenodd" d="M16.842 3.498C16.9376 3.40575 17.0137 3.29541 17.0661 3.1734C17.1186 3.0514 17.1461 2.92018 17.1473 2.7874C17.1485 2.65462 17.1232 2.52294 17.0729 2.40005C17.0226 2.27715 16.9483 2.1655 16.8544 2.0716C16.7606 1.97771 16.6489 1.90346 16.526 1.85318C16.4031 1.8029 16.2714 1.7776 16.1386 1.77875C16.0059 1.7799 15.8746 1.80749 15.7526 1.8599C15.6306 1.91231 15.5203 1.98849 15.428 2.084L6.09705 11.415L2.84905 8.168C2.7568 8.07249 2.64646 7.99631 2.52445 7.9439C2.40245 7.89149 2.27123 7.8639 2.13845 7.86275C2.00567 7.8616 1.87399 7.8869 1.75109 7.93718C1.6282 7.98746 1.51655 8.06171 1.42265 8.1556C1.32876 8.2495 1.25451 8.36115 1.20423 8.48405C1.15395 8.60694 1.12864 8.73862 1.1298 8.8714C1.13095 9.00418 1.15854 9.1354 1.21095 9.2574C1.26336 9.37941 1.33954 9.48975 1.43505 9.582L5.39005 13.537C5.57758 13.7245 5.83188 13.8298 6.09705 13.8298C6.36221 13.8298 6.61652 13.7245 6.80405 13.537L16.842 3.498Z" fill="white"/>
</mask>
<g mask="url(#mask0_2120_10570)">
<path d="M6.09732 11.415L4.68332 12.83L6.09732 14.244L7.51032 12.83L6.09632 11.415H6.09732ZM15.4283 3.49802C15.2408 3.31049 15.1355 3.05619 15.1355 2.79102C15.1355 2.52586 15.2408 2.27155 15.4283 2.08402L18.2573 4.91302C18.5359 4.63444 18.757 4.3037 18.9078 3.93969C19.0586 3.57568 19.1362 3.18553 19.1362 2.79152C19.1362 2.39751 19.0586 2.00736 18.9078 1.64335C18.757 1.27934 18.5359 0.948604 18.2573 0.670022L15.4283 3.49802ZM16.8423 3.49802C16.6548 3.68549 16.4005 3.79081 16.1353 3.79081C15.8702 3.79081 15.6158 3.68549 15.4283 3.49802L18.2573 0.670022C17.9787 0.391392 17.648 0.170368 17.284 0.0195725C16.92 -0.131223 16.5298 -0.208838 16.1358 -0.208838C15.7418 -0.208838 15.3517 -0.131223 14.9876 0.0195725C14.6236 0.170368 14.2929 0.391392 14.0143 0.670022L16.8423 3.49802ZM7.51032 12.83L16.8423 3.49802L14.0143 0.670022L4.68332 10.001L7.51032 12.83ZM1.43532 9.58202L4.68332 12.83L7.51032 10L4.26432 6.75402L1.43532 9.58202ZM2.84932 9.58202C2.66179 9.76949 2.40748 9.87481 2.14232 9.87481C1.87715 9.87481 1.62284 9.76949 1.43532 9.58202L4.26432 6.75402C3.98573 6.47539 3.65499 6.25437 3.29098 6.10357C2.92697 5.95278 2.53682 5.87516 2.14282 5.87516C1.74881 5.87516 1.35866 5.95278 0.994648 6.10357C0.630638 6.25437 0.299898 6.47539 0.0213155 6.75402L2.84932 9.58202ZM2.84932 8.16802C3.03679 8.35555 3.1421 8.60986 3.1421 8.87502C3.1421 9.14019 3.03679 9.39449 2.84932 9.58202L0.0213155 6.75402C-0.257314 7.0326 -0.478338 7.36334 -0.629134 7.72735C-0.77993 8.09136 -0.857544 8.48151 -0.857544 8.87552C-0.857544 9.26953 -0.77993 9.65968 -0.629134 10.0237C-0.478338 10.3877 -0.257314 10.7184 0.0213155 10.997L2.84932 8.16802ZM6.80432 12.123L2.84932 8.16802L0.0213155 10.997L3.97532 14.951L6.80432 12.123ZM5.39032 12.123C5.57784 11.9356 5.83215 11.8302 6.09732 11.8302C6.36248 11.8302 6.61679 11.9356 6.80432 12.123L3.97532 14.95C4.2539 15.2287 4.58464 15.4497 4.94865 15.6005C5.31266 15.7513 5.70281 15.8289 6.09682 15.8289C6.49082 15.8289 6.88097 15.7513 7.24498 15.6005C7.60899 15.4497 7.93973 15.2287 8.21832 14.95L5.39032 12.123ZM15.4283 2.08402L5.39032 12.123L8.21832 14.951L18.2573 4.91302L15.4283 2.08402Z" fill="#FC968A"/>
</g>
</svg>
