<svg width="13" height="13" viewBox="0 0 13 13" fill="none" xmlns="http://www.w3.org/2000/svg">
<path d="M12.3818 0L8.13182 1.407L1.66282 7.875L0.31882 9.188C0.114459 9.39659 0 9.67698 0 9.969C0 10.261 0.114459 10.5414 0.31882 10.75L1.60082 12.032C1.81282 12.244 2.09882 12.344 2.38182 12.344C2.66482 12.344 2.95082 12.244 3.16282 12.031L4.47582 10.688H4.50682L10.9448 4.25L12.3818 0ZM10.7878 1.594L10.1948 3.375L9.00682 2.188L10.7878 1.594ZM8.19482 2.782L9.60082 4.188L4.13182 9.625L2.72582 8.219L8.19482 2.782ZM2.00682 8.937L3.44482 10.344L2.44482 11.313C2.39882 11.359 2.36482 11.359 2.31882 11.313L1.03882 10.031C0.99182 9.986 0.99182 9.952 1.03882 9.907L2.00682 8.937Z" fill="white"/>
</svg>
