<svg width="23" height="20" viewBox="0 0 23 20" fill="none" xmlns="http://www.w3.org/2000/svg">
<g clip-path="url(#clip0_2120_10564)">
<path fill-rule="evenodd" clip-rule="evenodd" d="M9.32696 2.63802C8.99996 3.28002 8.99996 4.12002 8.99996 5.80002V9.00002H15.07L13.778 7.70702C13.6054 7.53475 13.5017 7.30538 13.4864 7.06202C13.4711 6.81867 13.5453 6.57812 13.6949 6.3856C13.8445 6.19308 14.0594 6.06188 14.299 6.01665C14.5386 5.97142 14.7864 6.0153 14.996 6.14002L15.098 6.21002L15.192 6.29302L18.192 9.29302C18.227 9.3279 18.2594 9.36534 18.289 9.40502L18.36 9.51502L18.41 9.61902L18.447 9.72602L18.47 9.82602L18.483 9.94102V10.075L18.47 10.175L18.443 10.288L18.41 10.381L18.377 10.453L18.329 10.536L18.265 10.626L18.192 10.707L15.192 13.707C15.012 13.8864 14.7705 13.9905 14.5166 13.9982C14.2626 14.006 14.0152 13.9168 13.8247 13.7488C13.6341 13.5807 13.5147 13.3465 13.4906 13.0935C13.4665 12.8406 13.5395 12.588 13.695 12.387L13.778 12.293L15.07 11H8.99996V14.2C8.99996 15.88 8.99996 16.72 9.32696 17.362C9.61457 17.9265 10.0735 18.3854 10.638 18.673C11.28 19 12.12 19 13.8 19H17.2C18.88 19 19.72 19 20.362 18.673C20.9264 18.3854 21.3853 17.9265 21.673 17.362C22 16.72 22 15.88 22 14.2V5.80002C22 4.12002 22 3.28002 21.673 2.63802C21.3853 2.07356 20.9264 1.61463 20.362 1.32702C19.72 1.00002 18.88 1.00002 17.2 1.00002H13.8C12.12 1.00002 11.28 1.00002 10.638 1.32702C10.0735 1.61463 9.61457 2.07356 9.32696 2.63802ZM8.99996 9.00002H2.51696L2.39996 9.00702C2.14686 9.03712 1.91481 9.16273 1.75122 9.35819C1.58763 9.55364 1.50485 9.80418 1.51979 10.0586C1.53472 10.3131 1.64625 10.5522 1.83159 10.7272C2.01693 10.9021 2.26208 10.9997 2.51696 11H8.99996V9.00002Z" fill="white"/>
</g>
<defs>
<clipPath id="clip0_2120_10564">
<rect width="23" height="20" fill="white"/>
</clipPath>
</defs>
</svg>
