<svg width="11" height="11" viewBox="0 0 11 11" fill="none" xmlns="http://www.w3.org/2000/svg">
<path d="M5.5 0C2.46262 0 0 2.46262 0 5.5C0 8.53738 2.46262 11 5.5 11C8.53738 11 11 8.53738 11 5.5C11 2.46262 8.53738 0 5.5 0ZM4.8125 4.8125C4.8125 4.63016 4.88493 4.4553 5.01386 4.32636C5.1428 4.19743 5.31766 4.125 5.5 4.125C5.68234 4.125 5.8572 4.19743 5.98614 4.32636C6.11507 4.4553 6.1875 4.63016 6.1875 4.8125V8.25C6.1875 8.43234 6.11507 8.6072 5.98614 8.73614C5.8572 8.86507 5.68234 8.9375 5.5 8.9375C5.31766 8.9375 5.1428 8.86507 5.01386 8.73614C4.88493 8.6072 4.8125 8.43234 4.8125 8.25V4.8125ZM5.5 3.4485C5.40969 3.44848 5.32028 3.43067 5.23685 3.39609C5.15343 3.36151 5.07763 3.31084 5.01379 3.24696C4.94995 3.18309 4.89932 3.10727 4.86478 3.02383C4.83024 2.94039 4.81248 2.85096 4.8125 2.76066C4.81252 2.67035 4.83033 2.58093 4.86491 2.49751C4.89949 2.41409 4.95016 2.33829 5.01404 2.27445C5.07791 2.21061 5.15373 2.15997 5.23717 2.12544C5.32061 2.0909 5.41004 2.07313 5.50034 2.07316C5.68273 2.0732 5.85762 2.1457 5.98655 2.27469C6.11548 2.40369 6.18789 2.57862 6.18784 2.761C6.1878 2.94338 6.1153 3.11828 5.98631 3.24721C5.85731 3.37614 5.68238 3.44855 5.5 3.4485Z" fill="#6F928E"/>
</svg>
