<svg width="19" height="21" viewBox="0 0 19 21" fill="none" xmlns="http://www.w3.org/2000/svg">
<path fill-rule="evenodd" clip-rule="evenodd" d="M10.06 19.244C-1.49203 19.244 -0.970035 2.73697 9.87297 2.73697C20.68 2.73697 20.616 19.244 10.06 19.244ZM8.30597 3.98697C8.81911 3.89148 9.34002 3.84394 9.86197 3.84497C11.505 3.84497 12.857 4.28897 13.929 5.02497L13.62 5.77297L12.906 5.91697L12.203 5.60697L11.148 6.05497L10.731 6.93997L9.40097 6.19197L8.58097 6.93997L9.11997 7.56397L9.02397 8.53097L10.288 8.25197L10.376 9.35197L11.399 9.39797L11.418 8.35797L13.028 8.89197L12.743 10.486L11.493 10.148L10.653 10.423L9.06197 9.51297L7.37897 10.203L7.10097 11.548L7.68397 12.947L9.45397 13.418L9.19797 15.622L9.53697 17.118L11.081 16.997L12.898 14.39L14.293 13.643L13.428 13.39L12.723 11.84L13.046 11.107L13.981 12.736L15.346 12.046L15.159 11.418L14.725 11.352L14.165 10.763L14.4 10.406L15.845 10.956L16.83 11.851C16.5 15.114 14.22 18.135 10.021 18.135C7.10397 18.135 5.07797 16.918 3.90097 15.196L5.22097 13.326L3.93597 11.675L3.49897 7.58197C3.65897 7.26697 3.84097 6.96397 4.04697 6.67697L6.13097 6.80697L8.50597 5.12297L8.30697 3.98797L8.30597 3.98697Z" fill="white"/>
</svg>
