<svg width="22" height="26" viewBox="0 0 22 26" fill="none" xmlns="http://www.w3.org/2000/svg">
<g clip-path="url(#clip0_1771_2890)">
<path d="M12.1 24.6752H9.2L9.5 24.4366C9.69999 24.2777 9.92085 24.1061 10.1625 23.9219C10.4042 23.7378 10.625 23.5662 10.825 23.4072L11.125 23.1687H12.15C13.7666 23.1687 15.2709 22.6832 16.6625 21.7124C17.6723 21.0079 18.8159 19.942 19.6732 18.8602C20.103 18.3178 19.7222 17.593 19.0307 17.5636C17.8482 17.5132 16.589 17.4454 15.625 17.0547C14.2417 16.494 13.0208 15.6863 11.9625 14.6317C10.9042 13.5772 10.1 12.3594 9.55 10.9784C9.16594 10.0141 9.11508 8.74164 9.07395 7.55434C9.05007 6.86516 8.33088 6.48355 7.78828 6.90912C6.68299 7.77601 5.60076 8.93961 4.9125 9.94895C3.97084 11.3299 3.5 12.8574 3.5 14.5313V14.8201C3.5 14.9288 3.50833 15.0251 3.525 15.1087L3.29902 15.2022C3.14837 15.2645 2.98203 15.3296 2.8 15.3975C2.61796 15.4655 2.45162 15.5306 2.30097 15.5928L2.075 15.6863C2.04167 15.4687 2.02083 15.2678 2.0125 15.0837C2.00417 14.8996 2 14.7154 2 14.5313C2 12.0874 2.775 9.93221 4.325 8.0658C5.57431 6.56146 7.09973 5.51656 8.90125 4.93112C9.53959 4.72367 10.1222 5.30004 10.0896 5.97046C10.033 7.1365 10.1781 8.28804 10.525 9.42506C11.0083 11.0092 11.8416 12.3963 13.025 13.5865C14.2084 14.7766 15.5875 15.6148 17.1625 16.1009C18.2989 16.4517 19.455 16.5974 20.6305 16.538C21.2973 16.5042 21.8726 17.08 21.6723 17.717C21.1 19.5364 20.0593 21.0763 18.55 22.3368C16.6834 23.8957 14.5333 24.6752 12.1 24.6752ZM5 23.1687H9.5C10.0555 23.1687 10.5278 22.9739 10.9167 22.5845C11.3055 22.1951 11.5 21.7222 11.5 21.1659C11.5 20.6096 11.3095 20.1347 10.9285 19.7414C10.5474 19.348 10.088 19.1513 9.55 19.1513H8.575L8.2 18.2724C7.91667 17.6196 7.48593 17.1007 6.9078 16.7157C6.32969 16.3307 5.69375 16.1382 5 16.1382C4.05 16.1382 3.22917 16.4814 2.5375 17.1677C1.84583 17.854 1.5 18.6826 1.5 19.6535C1.5 20.6299 1.84027 21.4599 2.52083 22.1434C3.20139 22.8269 4.02778 23.1687 5 23.1687ZM5 24.6752C3.61667 24.6752 2.4375 24.1856 1.4625 23.2064C0.4875 22.2271 0 21.0428 0 19.6535C0 18.2641 0.4875 17.0798 1.4625 16.1006C2.4375 15.1214 3.61667 14.6317 5 14.6317C6 14.6317 6.9125 14.9038 7.7375 15.4477C8.5625 15.9918 9.17499 16.7241 9.57497 17.6448C10.525 17.6782 11.3333 18.034 12 18.7119C12.6666 19.3898 13 20.2059 13 21.16C13 22.1309 12.6583 22.9594 11.975 23.6457C11.2916 24.332 10.4666 24.6752 9.5 24.6752H5Z" fill="#131313"/>
</g>
<defs>
<clipPath id="clip0_1771_2890">
<rect width="22" height="20.087" fill="white" transform="translate(0 4.5874)"/>
</clipPath>
</defs>
</svg>
