<svg width="22" height="26" viewBox="0 0 22 26" fill="none" xmlns="http://www.w3.org/2000/svg">
<g clip-path="url(#clip0_1771_2880)">
<g clip-path="url(#clip1_1771_2880)">
<path d="M3.8058 4.18875C2.04286 4.43429 0.658036 5.6325 0.132589 7.35617C0.00982143 7.75394 0 7.87179 0 8.53474C0 9.19768 0.00982143 9.31554 0.132589 9.71331C0.373214 10.5039 0.977232 11.4664 1.41429 11.7513C1.61071 11.8789 1.8808 11.9182 2.13124 11.8495C2.32277 11.7955 2.61741 11.5205 4.89107 9.25661C6.29063 7.85705 7.48884 6.6392 7.55759 6.54098C7.92099 6.02045 7.7 5.495 6.89464 4.95482C5.97143 4.33607 4.8125 4.05125 3.8058 4.18875ZM5.22991 6.03027C5.3625 6.07447 5.47544 6.12848 5.48527 6.14812C5.5 6.16777 4.7192 6.97312 3.74687 7.94545L1.98884 9.70348L1.91517 9.56108C1.71384 9.16331 1.65982 8.33831 1.80714 7.83741C2.06741 6.94367 2.77946 6.2267 3.65357 5.98117C4.00223 5.88295 4.9058 5.91241 5.22991 6.03027Z" fill="#131313"/>
<path d="M16.7949 4.17917C16.0682 4.2823 15.4248 4.52783 14.8012 4.94524C13.9958 5.48542 13.7748 6.01087 14.1383 6.53141C14.207 6.62962 15.4051 7.84748 16.8048 9.24702C19.0784 11.5109 19.373 11.7859 19.5646 11.8399C19.815 11.9086 20.0851 11.8694 20.2815 11.7417C20.7186 11.4569 21.3226 10.4944 21.5633 9.70372C21.686 9.30595 21.6958 9.1881 21.6958 8.52515C21.6958 7.86221 21.686 7.74435 21.5633 7.34658C20.9985 5.49033 19.4516 4.26265 17.5512 4.15953C17.2958 4.14971 16.957 4.15462 16.7949 4.17917ZM17.9932 5.97158C19.4663 6.35952 20.2766 7.80328 19.869 9.31087C19.7463 9.76756 19.8641 9.85105 17.9293 7.91622L16.1614 6.14837L16.3087 6.08944C16.8048 5.89301 17.5119 5.83899 17.9932 5.97158Z" fill="#131313"/>
<path fill-rule="evenodd" clip-rule="evenodd" d="M10.2103 5.56582C10.1317 5.57563 9.88619 5.61001 9.67012 5.63948C8.42772 5.80152 7.11655 6.26313 6.01655 6.9359C5.33396 7.3484 4.82325 7.75108 4.21923 8.36001C3.17816 9.39618 2.48084 10.4814 1.99468 11.8024C0.742447 15.2202 1.48396 18.9328 3.95896 21.6386L4.29289 22.0069L5.65807 23.102L6.07058 23.3524C7.54379 24.2413 9.18396 24.6881 10.9715 24.6881C12.759 24.6881 14.3991 24.2413 15.8724 23.3524L16.2848 23.102L17.6501 22.0069L17.984 21.6386C19.3639 20.1309 20.1987 18.3533 20.4787 16.3154C20.5719 15.6229 20.5523 14.2676 20.4344 13.5899C20.076 11.5372 19.1822 9.81358 17.7237 8.36001C16.2603 6.89171 14.5367 6.01269 12.4447 5.65912C11.9978 5.58545 10.5197 5.52162 10.2103 5.56582ZM13.687 7.76582C13.2452 7.60376 12.5085 7.42206 12.0273 7.35822C10.1858 7.12251 8.41789 7.49572 6.88084 8.44349C3.75762 10.3636 2.37772 14.1448 3.54155 17.6118C4.29781 19.8756 6.08039 21.7024 8.31968 22.5029C9.24781 22.8368 9.90093 22.9449 10.9715 22.9449C12.042 22.9449 12.6952 22.8368 13.6233 22.5029C15.8625 21.7024 17.6452 19.8756 18.4013 17.6118C19.7469 13.5997 17.6697 9.26849 13.687 7.76582Z" fill="#131313"/>
<path d="M8 19.0005V18.2201L11.1393 15.012C11.5077 14.6363 11.8111 14.3097 12.0495 14.0323C12.2879 13.7519 12.4644 13.4889 12.5789 13.2433C12.6966 12.9947 12.7554 12.7346 12.7554 12.4629C12.7554 12.1508 12.6749 11.8805 12.5139 11.6522C12.356 11.4239 12.1393 11.2476 11.8638 11.1233C11.5882 10.999 11.2786 10.9369 10.935 10.9369C10.5697 10.9369 10.2508 11.0077 9.97833 11.1493C9.70898 11.2881 9.5 11.4831 9.35139 11.7346C9.20588 11.986 9.13313 12.2808 9.13313 12.619H8.03715C8.03715 12.0988 8.16563 11.6421 8.4226 11.249C8.67957 10.856 9.02941 10.5496 9.47214 10.33C9.91796 10.1103 10.418 10.0005 10.9721 10.0005C11.5294 10.0005 12.0232 10.1103 12.4536 10.33C12.8839 10.5496 13.2214 10.8459 13.4659 11.2187C13.7105 11.5915 13.8328 12.0063 13.8328 12.4629C13.8328 12.7895 13.7693 13.1089 13.6424 13.421C13.5186 13.7303 13.3019 14.0756 12.9923 14.4571C12.6858 14.8357 12.2601 15.2982 11.7152 15.8444L9.57895 17.9774V18.0467H14V19.0005H8Z" fill="#131313"/>
</g>
</g>
<defs>
<clipPath id="clip0_1771_2880">
<rect width="22" height="22" fill="white" transform="translate(0 3.63086)"/>
</clipPath>
<clipPath id="clip1_1771_2880">
<rect width="22" height="20.9524" fill="white" transform="translate(0 4.15479)"/>
</clipPath>
</defs>
</svg>
