<svg width="17" height="16" viewBox="0 0 17 16" fill="none" xmlns="http://www.w3.org/2000/svg">
<path d="M1.11031 0.146447C1.30558 -0.0488155 1.62208 -0.0488155 1.81735 0.146447L8.96383 7.29293L15.9599 0.296837C16.1552 0.101942 16.4718 0.101697 16.667 0.296837C16.8621 0.49198 16.8618 0.80859 16.667 1.00387L9.67086 7.99996L16.667 14.9961C16.8618 15.1914 16.8621 15.508 16.667 15.7031C16.4718 15.8982 16.1552 15.8979 15.9599 15.7031L8.96383 8.70699L1.81735 15.8535C1.6221 16.0487 1.30558 16.0487 1.11031 15.8535C0.915052 15.6582 0.915052 15.3417 1.11031 15.1464L8.2568 7.99996L1.11031 0.853478C0.915052 0.658216 0.915052 0.341709 1.11031 0.146447Z" fill="white"/>
</svg>
