<svg width="13" height="9" viewBox="0 0 13 9" fill="none" xmlns="http://www.w3.org/2000/svg">
<path d="M6.50008 1.75C8.553 1.75 10.3838 2.90375 11.2776 4.72916C10.3838 6.55458 8.553 7.70833 6.50008 7.70833C4.44716 7.70833 2.61633 6.55458 1.72258 4.72916C2.61633 2.90375 4.44716 1.75 6.50008 1.75ZM6.50008 0.666664C3.79175 0.666664 1.47883 2.35125 0.541748 4.72916C1.47883 7.10708 3.79175 8.79166 6.50008 8.79166C9.20841 8.79166 11.5213 7.10708 12.4584 4.72916C11.5213 2.35125 9.20841 0.666664 6.50008 0.666664ZM6.50008 3.375C7.24758 3.375 7.85425 3.98166 7.85425 4.72916C7.85425 5.47666 7.24758 6.08333 6.50008 6.08333C5.75258 6.08333 5.14591 5.47666 5.14591 4.72916C5.14591 3.98166 5.75258 3.375 6.50008 3.375ZM6.50008 2.29166C5.15675 2.29166 4.06258 3.38583 4.06258 4.72916C4.06258 6.0725 5.15675 7.16666 6.50008 7.16666C7.84341 7.16666 8.93758 6.0725 8.93758 4.72916C8.93758 3.38583 7.84341 2.29166 6.50008 2.29166Z" fill="black"/>
</svg>
