<svg width="244" height="44" viewBox="0 0 244 44" fill="none" xmlns="http://www.w3.org/2000/svg">
<g clip-path="url(#clip0_1521_6442)">
<path d="M25.4759 9.93301C25.6091 9.69026 25.7416 9.45086 25.8404 9.19141C26.0666 8.59771 26.1726 7.97326 26.2884 7.35141C26.622 5.55936 26.9424 3.64229 28.4001 2.38216C28.67 2.1488 29.1352 1.79192 29.4823 1.69359C29.6497 1.64619 29.8179 1.65638 29.971 1.74253C30.0969 1.81342 30.1965 1.9237 30.2339 2.06538C30.2646 2.1813 30.2605 2.3743 30.2036 2.48172C30.0753 2.7235 29.5626 2.9482 29.3429 3.12108C28.8513 3.50774 28.4915 3.98761 28.2278 4.55274C27.3393 6.45636 27.5416 9.13606 26.3144 10.719C26.0458 11.0654 25.7262 11.3056 25.4022 11.5904C25.3141 11.9372 25.2303 12.2848 25.1045 12.6204C24.7418 13.5879 24.0744 14.464 23.1803 14.9956C22.6741 15.2965 22.1414 15.4493 21.5593 15.5195C21.7993 15.6793 22.0755 15.788 22.3247 15.9351C22.4096 15.9046 22.495 15.8752 22.5807 15.8468C22.6664 15.8184 22.7525 15.7911 22.8388 15.7649C22.9252 15.7387 23.0119 15.7135 23.0989 15.6894C23.1859 15.6653 23.2732 15.6423 23.3608 15.6204C23.4484 15.5984 23.5362 15.5776 23.6243 15.5578C23.7124 15.538 23.8007 15.5194 23.8892 15.5018C23.9778 15.4842 24.0665 15.4677 24.1555 15.4523C24.2444 15.4369 24.3336 15.4226 24.4229 15.4094C24.5122 15.3962 24.6017 15.3841 24.6913 15.3731C24.7809 15.3621 24.8706 15.3522 24.9605 15.3435C25.0503 15.3347 25.1402 15.327 25.2303 15.3205C25.3203 15.3139 25.4105 15.3084 25.5006 15.3041C25.5908 15.2998 25.681 15.2966 25.7713 15.2945C25.8615 15.2924 25.9518 15.2914 26.0421 15.2915C26.1323 15.2916 26.2226 15.2929 26.3129 15.2953C26.4031 15.2976 26.4933 15.3011 26.5835 15.3057C26.6736 15.3103 26.7637 15.316 26.8537 15.3228C26.9438 15.3296 27.0337 15.3375 27.1235 15.3465C27.2134 15.3555 27.3031 15.3657 27.3926 15.3769C27.4822 15.3881 27.5716 15.4005 27.6609 15.414C27.7501 15.4274 27.8392 15.4419 27.9282 15.4576C28.0171 15.4733 28.1058 15.49 28.1943 15.5079C28.2828 15.5257 28.371 15.5446 28.4591 15.5647C28.5471 15.5847 28.6349 15.6058 28.7224 15.628C28.8099 15.6501 28.8971 15.6734 28.9841 15.6978C29.071 15.7221 29.1576 15.7475 29.2439 15.774C29.3302 15.8005 29.4162 15.828 29.5018 15.8566C29.5875 15.8852 29.6727 15.9149 29.7576 15.9456C29.8425 15.9763 29.927 16.008 30.0111 16.0408C30.0952 16.0736 30.1789 16.1074 30.2622 16.1423C30.3455 16.1772 30.4283 16.2131 30.5107 16.25C30.5931 16.2869 30.675 16.3248 30.7565 16.3637C33.4302 17.6501 35.6118 20.0097 36.5918 22.8232C36.6237 22.914 36.6544 23.0052 36.6841 23.0968C36.7137 23.1883 36.7421 23.2803 36.7695 23.3726C36.7968 23.4649 36.823 23.5575 36.848 23.6504C36.873 23.7433 36.8969 23.8366 36.9196 23.9302C36.9423 24.0237 36.9638 24.1175 36.9842 24.2116C37.0045 24.3056 37.0237 24.3999 37.0417 24.4945C37.0597 24.5891 37.0765 24.6838 37.0922 24.7788C37.1078 24.8738 37.1223 24.9689 37.1355 25.0643C37.1488 25.1596 37.1609 25.2551 37.1717 25.3507C37.1826 25.4463 37.1923 25.5421 37.2008 25.638C37.2093 25.7339 37.2166 25.8298 37.2227 25.9259C37.2288 26.0219 37.2337 26.1181 37.2374 26.2143C37.2411 26.3104 37.2436 26.4066 37.245 26.5029C37.2463 26.5991 37.2464 26.6954 37.2453 26.7916C37.2442 26.8878 37.2419 26.9841 37.2384 27.0803C37.2349 27.1765 37.2302 27.2726 37.2243 27.3687C37.2185 27.4647 37.2114 27.5607 37.2031 27.6566C37.1948 27.7525 37.1853 27.8483 37.1746 27.944C37.164 28.0396 37.1521 28.1351 37.1391 28.2305C37.126 28.3258 37.1118 28.421 37.0963 28.516C37.0809 28.611 37.0643 28.7059 37.0465 28.8005C37.0287 28.895 37.0098 28.9894 36.9896 29.0835C36.9695 29.1776 36.9481 29.2715 36.9257 29.3651C36.9032 29.4587 36.8795 29.552 36.8547 29.645C36.8299 29.738 36.8039 29.8306 36.7768 29.923C36.7497 30.0153 36.7214 30.1073 36.692 30.199C36.6626 30.2906 36.632 30.3819 36.6003 30.4728C36.5687 30.5637 36.5358 30.6541 36.5019 30.7442C36.4679 30.8343 36.4329 30.9239 36.3967 31.0131C36.3605 31.1023 36.3232 31.191 36.2848 31.2793C36.2464 31.3675 36.2069 31.4553 36.1663 31.5426C36.1257 31.6299 36.0841 31.7166 36.0413 31.8029C34.461 35.0527 31.9423 37.5019 28.8189 39.2788C28.2517 39.6038 27.6708 39.902 27.076 40.1733C26.4813 40.4446 25.8752 40.6879 25.258 40.9031C22.9888 41.6859 20.0702 42.2774 17.805 41.1716C16.7178 40.6409 15.9405 39.7117 15.5514 38.5715C15.2401 37.6591 15.1457 36.6962 15.1688 35.7364L14.8851 35.6459C14.6574 35.5759 14.0084 35.3011 13.818 35.3012C13.8611 35.3564 13.8993 35.417 13.9273 35.4812C13.9877 35.6195 13.9814 35.791 13.9274 35.9301C13.8752 36.0649 13.7742 36.1875 13.6383 36.2434C13.3988 36.3417 13.1307 36.2296 12.9096 36.1301C12.8157 36.0879 12.7222 36.0446 12.6294 36.0001C12.5365 35.9556 12.4442 35.91 12.3524 35.8633C12.2607 35.8165 12.1695 35.7686 12.0789 35.7196C11.9884 35.6705 11.8984 35.6204 11.8091 35.5692C11.7198 35.5179 11.6311 35.4655 11.5431 35.4121C11.455 35.3586 11.3677 35.3041 11.281 35.2485C11.1943 35.1929 11.1083 35.1362 11.0231 35.0785C10.9378 35.0207 10.8533 34.9619 10.7694 34.9021C10.6856 34.8423 10.6025 34.7814 10.5202 34.7196C10.4379 34.6577 10.3564 34.5948 10.2756 34.5309C10.1949 34.4669 10.1149 34.402 10.0358 34.3362C9.95661 34.2703 9.87828 34.2034 9.80078 34.1356C9.72331 34.0678 9.64668 33.999 9.57088 33.9293C9.49508 33.8595 9.42016 33.7889 9.34613 33.7173C9.27206 33.6457 9.19891 33.5733 9.12668 33.4999C9.05444 33.4265 8.98311 33.3522 8.91268 33.2771C8.84228 33.2019 8.77281 33.1259 8.70428 33.049C8.63574 32.9721 8.56818 32.8944 8.50158 32.8159C8.43498 32.7373 8.36936 32.658 8.30473 32.5778C8.24009 32.4976 8.17646 32.4167 8.11383 32.3349C8.05119 32.2532 7.98958 32.1707 7.92898 32.0874C7.86838 32.0041 7.80883 31.9201 7.75033 31.8354C7.69179 31.7506 7.63433 31.6652 7.57793 31.579C7.52153 31.4928 7.46621 31.406 7.41198 31.3184C7.35774 31.2309 7.30459 31.1427 7.25253 31.0538C7.20046 30.965 7.14949 30.8755 7.09963 30.7854C7.04979 30.6953 7.00108 30.6045 6.95348 30.5132C6.90588 30.4219 6.85941 30.33 6.81408 30.2375C6.76874 30.145 6.72458 30.052 6.68158 29.9585C6.63854 29.8649 6.59668 29.7708 6.55598 29.6762C6.51528 29.5816 6.47576 29.4865 6.43743 29.3909C6.39909 29.2953 6.36194 29.1993 6.32598 29.1028C5.16113 26.0561 5.14473 22.446 6.48523 19.451C6.54173 19.3253 6.60069 19.2007 6.66213 19.0773C6.72356 18.9539 6.78741 18.8318 6.85368 18.7109C6.91991 18.59 6.98851 18.4705 7.05948 18.3524C7.13048 18.2342 7.20376 18.1175 7.27933 18.0022C7.35493 17.8869 7.43276 17.7732 7.51283 17.661C7.59289 17.5488 7.67514 17.4382 7.75958 17.3293C7.84404 17.2203 7.93061 17.1131 8.01928 17.0076C8.10794 16.902 8.19868 16.7983 8.29148 16.6964C8.38424 16.5944 8.47899 16.4944 8.57573 16.3962C8.67246 16.298 8.77109 16.2017 8.87163 16.1074C8.97216 16.0131 9.07451 15.9208 9.17868 15.8305C9.28284 15.7402 9.38876 15.6521 9.49643 15.566C9.60409 15.4799 9.71341 15.396 9.82438 15.3143C9.93534 15.2325 10.0479 15.1529 10.162 15.0756C10.2761 14.9983 10.3917 14.9233 10.5088 14.8505C10.6259 14.7777 10.7443 14.7073 10.8642 14.6393C10.984 14.5712 11.1052 14.5055 11.2277 14.4422C11.3501 14.3789 11.4738 14.3181 11.5986 14.2597C11.7235 14.2013 11.8495 14.1454 11.9765 14.092C12.1036 14.0385 12.2317 13.9876 12.3607 13.9393C12.4898 13.8909 12.6198 13.8451 12.7507 13.8019C12.8815 13.7586 13.0132 13.7179 13.1457 13.6799C13.2782 13.6419 13.4114 13.6065 13.5453 13.5737C13.6792 13.5409 13.8137 13.5108 13.9487 13.4834C14.0838 13.4559 14.2194 13.4311 14.3554 13.409C14.4915 13.3869 14.6279 13.3675 14.7648 13.3508C14.9016 13.3341 15.0387 13.32 15.1761 13.3087C15.3134 13.2974 15.451 13.2888 15.5887 13.283C15.7264 13.2771 15.8642 13.2739 16.002 13.2735C16.1399 13.2731 16.2777 13.2754 16.4154 13.2804C16.5532 13.2854 16.6908 13.2931 16.8282 13.3036C16.9657 13.314 17.1028 13.3272 17.2398 13.3431C17.538 13.3779 17.834 13.4265 18.1277 13.4889C18.4214 13.5513 18.7115 13.6273 18.9982 13.7168C20.1347 14.0811 20.9722 14.658 22.2062 14.1786C23.0989 13.8318 23.6435 13.0779 24.0183 12.2314C23.3448 12.4023 22.699 12.4445 22.0072 12.4358C21.6405 12.4422 21.2753 12.4481 20.9102 12.4045C19.7952 12.271 18.6641 11.7677 17.7879 11.0712C16.3007 9.88886 15.4793 8.05786 15.0132 6.25806C14.8893 5.77966 14.778 5.30171 14.7202 4.81028C14.8857 4.81153 15.2936 4.87742 15.4183 4.81793C15.3588 4.58047 15.2882 4.2723 15.415 4.04551C15.4826 3.92449 15.5992 3.83931 15.7324 3.80439C16.0724 3.71521 16.5166 3.76701 16.8674 3.77846C18.7631 3.84033 20.7475 4.23393 22.3862 5.22841C23.8418 6.11176 24.9232 7.46116 25.3266 9.13001C25.3908 9.39536 25.4338 9.66351 25.4759 9.93301Z" fill="white"/>
<path d="M16.3758 29.0691C16.437 28.7741 16.3678 28.4264 16.3719 28.1232C16.3741 27.9493 16.3817 27.7757 16.3946 27.6022C16.4074 27.4288 16.4256 27.256 16.4492 27.0837C16.4727 26.9114 16.5014 26.74 16.5355 26.5694C16.5695 26.3989 16.6087 26.2296 16.6532 26.0614C17.1795 24.1132 18.4853 22.6654 20.2083 21.6771C20.9369 21.2592 21.7327 20.9544 22.5366 20.7175C25.6499 19.7998 29.0459 19.9139 32.1963 20.5834C32.6787 20.6859 33.1733 20.8141 33.6445 20.9602C33.9374 21.051 34.2268 21.1611 34.5226 21.2413C34.724 21.5049 34.8733 21.81 35.0245 22.1041C35.9366 23.879 36.2511 25.9986 35.9886 27.9693C35.5258 31.4449 33.2483 34.6775 30.5031 36.7721C27.8309 38.811 23.3171 41.0641 19.8623 40.6031C18.834 40.4659 17.8525 40.0122 17.2185 39.1697C16.7245 38.5134 16.4987 37.7353 16.384 36.933C16.3875 36.8857 16.3891 36.8454 16.4141 36.8037C16.854 36.0703 17.4595 35.4184 18.2255 35.0198C18.4697 34.8927 18.777 34.8087 18.9978 34.6486C19.0029 34.6449 19.0079 34.641 19.013 34.6371C19.4438 34.8758 20.5646 35.4872 21.03 35.4082C21.1759 35.3835 21.3042 35.3105 21.3847 35.184C21.47 35.0502 21.5106 34.8568 21.4736 34.7013C21.4451 34.5809 21.368 34.4737 21.2679 34.402C21.012 34.2187 20.6364 34.136 20.3437 34.0138C20.036 33.8852 19.7382 33.7198 19.4562 33.542C17.8677 32.5405 16.7896 30.887 16.3758 29.0691Z" fill="#FDB5AD"/>
<path fill-rule="evenodd" clip-rule="evenodd" d="M35.2026 22.45C35.3219 22.6912 35.4219 22.9412 35.5026 23.2C35.5304 23.4333 35.5971 23.6499 35.7026 23.85C35.7991 24.21 35.8908 24.5767 35.9776 24.95C36.0525 25.8655 36.0692 26.7821 36.0276 27.7C35.7919 29.4548 35.2169 31.0881 34.3026 32.6C32.6502 35.1607 30.4669 37.1357 27.7526 38.525C26.627 39.1454 25.4437 39.6537 24.2026 40.05C24.037 40.0692 23.887 40.1192 23.7526 40.2C22.2996 40.6363 20.8163 40.7447 19.3026 40.525C18.0258 40.1729 17.1591 39.3812 16.7026 38.15C16.6951 38.0974 16.7034 38.0474 16.7276 38C16.8229 38.1973 16.9812 38.3057 17.2026 38.325C17.3377 38.4769 17.4877 38.6103 17.6526 38.725C17.9506 38.8405 18.2506 38.9571 18.5526 39.075C18.7954 39.0845 19.0288 39.1345 19.2526 39.225C20.037 39.2622 20.8204 39.2456 21.6026 39.175C23.6667 38.7903 25.5334 37.9737 27.2026 36.725C27.25 36.7009 27.3 36.6926 27.3526 36.7C27.3526 36.6334 27.3526 36.5667 27.3526 36.5C27.4739 36.4989 27.5906 36.4739 27.7026 36.425C28.7221 35.639 29.6637 34.764 30.5276 33.8C30.5442 33.7167 30.5609 33.6334 30.5776 33.55C30.8763 33.317 31.1429 33.0503 31.3776 32.75C31.6465 32.2776 31.9632 31.8442 32.3276 31.45C32.3442 31.3667 32.3609 31.2834 32.3776 31.2C32.6203 30.8478 32.837 30.4811 33.0276 30.1C33.209 29.754 33.3756 29.404 33.5276 29.05C33.8644 28.173 34.181 27.2896 34.4776 26.4C34.8253 25.0742 35.0253 23.7242 35.0776 22.35C35.0984 22.4128 35.1401 22.4462 35.2026 22.45Z" fill="#FDABA1"/>
<path d="M32.7007 22.3343C32.7104 22.3554 32.7145 22.3622 32.7206 22.3876C32.8057 22.741 32.7976 23.187 32.8072 23.5513C32.8617 25.6097 32.4542 27.7525 31.4986 29.589C30.7625 31.0037 29.6673 32.4886 28.0793 32.978C27.6071 33.1235 27.1044 33.1538 26.658 32.9187C26.5371 32.8322 26.4451 32.7219 26.391 32.5822C26.217 32.1326 26.5071 31.5897 26.7483 31.2225C27.0851 30.7096 27.5295 30.2966 27.9585 29.8642C28.3604 29.4592 28.7595 29.0474 29.1364 28.6191C29.2685 28.4707 29.3978 28.3199 29.5242 28.1666C29.6506 28.0133 29.774 27.8576 29.8945 27.6996C30.0149 27.5416 30.1323 27.3813 30.2467 27.2188C30.361 27.0563 30.4722 26.8917 30.5803 26.7249C30.6884 26.5582 30.7932 26.3894 30.8949 26.2187C30.9965 26.048 31.0948 25.8753 31.1899 25.7008C31.2849 25.5264 31.3766 25.3501 31.465 25.1721C31.5533 24.9942 31.6382 24.8146 31.7197 24.6333C32.067 23.8751 32.3651 23.0968 32.7007 22.3343Z" fill="#FFCDC6"/>
<path d="M25.4759 9.93301C25.6091 9.69026 25.7416 9.45086 25.8404 9.19141C26.0666 8.59771 26.1726 7.97326 26.2884 7.35141C26.622 5.55936 26.9424 3.64229 28.4001 2.38216C28.67 2.1488 29.1352 1.79192 29.4823 1.69359C29.6497 1.64619 29.8179 1.65638 29.971 1.74253C30.0969 1.81342 30.1965 1.9237 30.2339 2.06538C30.2646 2.1813 30.2605 2.3743 30.2036 2.48172C30.0753 2.7235 29.5626 2.9482 29.3429 3.12108C28.8513 3.50774 28.4915 3.98761 28.2278 4.55274C27.3393 6.45636 27.5416 9.13606 26.3144 10.719C26.0458 11.0654 25.7262 11.3056 25.4022 11.5904C25.3141 11.9372 25.2303 12.2848 25.1045 12.6204C24.7418 13.5879 24.0744 14.464 23.1803 14.9956C22.6741 15.2965 22.1414 15.4493 21.5593 15.5195C20.9993 15.532 20.4307 15.4816 19.9003 15.2908C19.5382 15.1606 19.1889 14.9965 18.8239 14.8738C17.2598 14.348 15.8235 14.3463 14.2103 14.6176C14.0564 15.0988 13.9182 15.5731 13.8213 16.0693C13.3515 18.4745 13.5734 21.0312 13.9676 23.4318C13.9646 23.656 13.9077 23.9199 13.8876 24.1504C13.7549 25.6681 13.4345 26.9238 12.3474 28.0577C13.3788 28.4784 13.9568 29.0294 14.3952 30.0659C15.006 31.5099 15.0896 33.1677 14.9874 34.7146C14.9696 34.9845 14.9649 35.3942 14.8851 35.6459C14.6574 35.5759 14.0084 35.3011 13.818 35.3012C13.8611 35.3564 13.8993 35.417 13.9273 35.4812C13.9877 35.6195 13.9814 35.791 13.9274 35.9301C13.8752 36.0649 13.7742 36.1875 13.6383 36.2434C13.3988 36.3417 13.1307 36.2296 12.9096 36.1301C12.8157 36.0879 12.7222 36.0446 12.6294 36.0001C12.5365 35.9556 12.4442 35.91 12.3524 35.8633C12.2607 35.8165 12.1695 35.7686 12.0789 35.7196C11.9884 35.6705 11.8984 35.6204 11.8091 35.5692C11.7198 35.5179 11.6311 35.4655 11.5431 35.4121C11.455 35.3586 11.3677 35.3041 11.281 35.2485C11.1943 35.1929 11.1083 35.1362 11.0231 35.0785C10.9378 35.0207 10.8533 34.9619 10.7694 34.9021C10.6856 34.8423 10.6025 34.7814 10.5202 34.7196C10.4379 34.6577 10.3564 34.5948 10.2756 34.5309C10.1949 34.4669 10.1149 34.402 10.0358 34.3362C9.95661 34.2703 9.87828 34.2034 9.80078 34.1356C9.72331 34.0678 9.64668 33.999 9.57088 33.9293C9.49508 33.8595 9.42016 33.7889 9.34613 33.7173C9.27206 33.6457 9.19891 33.5733 9.12668 33.4999C9.05444 33.4265 8.98311 33.3522 8.91268 33.2771C8.84228 33.2019 8.77281 33.1259 8.70428 33.049C8.63574 32.9721 8.56818 32.8944 8.50158 32.8159C8.43498 32.7373 8.36936 32.658 8.30473 32.5778C8.24009 32.4976 8.17646 32.4167 8.11383 32.3349C8.05119 32.2532 7.98958 32.1707 7.92898 32.0874C7.86838 32.0041 7.80883 31.9201 7.75033 31.8354C7.69179 31.7506 7.63433 31.6652 7.57793 31.579C7.52153 31.4928 7.46621 31.406 7.41198 31.3184C7.35774 31.2309 7.30459 31.1427 7.25253 31.0538C7.20046 30.965 7.14949 30.8755 7.09963 30.7854C7.04979 30.6953 7.00108 30.6045 6.95348 30.5132C6.90588 30.4219 6.85941 30.33 6.81408 30.2375C6.76874 30.145 6.72458 30.052 6.68158 29.9585C6.63854 29.8649 6.59668 29.7708 6.55598 29.6762C6.51528 29.5816 6.47576 29.4865 6.43743 29.3909C6.39909 29.2953 6.36194 29.1993 6.32598 29.1028C5.16113 26.0561 5.14473 22.446 6.48523 19.451C6.54173 19.3253 6.60069 19.2007 6.66213 19.0773C6.72356 18.9539 6.78741 18.8318 6.85368 18.7109C6.91991 18.59 6.98851 18.4705 7.05948 18.3524C7.13048 18.2342 7.20376 18.1175 7.27933 18.0022C7.35493 17.8869 7.43276 17.7732 7.51283 17.661C7.59289 17.5488 7.67514 17.4382 7.75958 17.3293C7.84404 17.2203 7.93061 17.1131 8.01928 17.0076C8.10794 16.902 8.19868 16.7983 8.29148 16.6964C8.38424 16.5944 8.47899 16.4944 8.57573 16.3962C8.67246 16.298 8.77109 16.2017 8.87163 16.1074C8.97216 16.0131 9.07451 15.9208 9.17868 15.8305C9.28284 15.7402 9.38876 15.6521 9.49643 15.566C9.60409 15.4799 9.71341 15.396 9.82438 15.3143C9.93534 15.2325 10.0479 15.1529 10.162 15.0756C10.2761 14.9983 10.3917 14.9233 10.5088 14.8505C10.6259 14.7777 10.7443 14.7073 10.8642 14.6393C10.984 14.5712 11.1052 14.5055 11.2277 14.4422C11.3501 14.3789 11.4738 14.3181 11.5986 14.2597C11.7235 14.2013 11.8495 14.1454 11.9765 14.092C12.1036 14.0385 12.2317 13.9876 12.3607 13.9393C12.4898 13.8909 12.6198 13.8451 12.7507 13.8019C12.8815 13.7586 13.0132 13.7179 13.1457 13.6799C13.2782 13.6419 13.4114 13.6065 13.5453 13.5737C13.6792 13.5409 13.8137 13.5108 13.9487 13.4834C14.0838 13.4559 14.2194 13.4311 14.3554 13.409C14.4915 13.3869 14.6279 13.3675 14.7648 13.3508C14.9016 13.3341 15.0387 13.32 15.1761 13.3087C15.3134 13.2974 15.451 13.2888 15.5887 13.283C15.7264 13.2771 15.8642 13.2739 16.002 13.2735C16.1399 13.2731 16.2777 13.2754 16.4154 13.2804C16.5532 13.2854 16.6908 13.2931 16.8282 13.3036C16.9657 13.314 17.1028 13.3272 17.2398 13.3431C17.538 13.3779 17.834 13.4265 18.1277 13.4889C18.4214 13.5513 18.7115 13.6273 18.9982 13.7168C20.1347 14.0811 20.9722 14.658 22.2062 14.1786C23.0989 13.8318 23.6435 13.0779 24.0183 12.2314C23.3448 12.4023 22.699 12.4445 22.0072 12.4358C21.6405 12.4422 21.2753 12.4481 20.9102 12.4045C19.7952 12.271 18.6641 11.7677 17.7879 11.0712C16.3007 9.88886 15.4793 8.05786 15.0132 6.25806C14.8893 5.77966 14.778 5.30171 14.7202 4.81028C14.8857 4.81153 15.2936 4.87742 15.4183 4.81793C15.3588 4.58047 15.2882 4.2723 15.415 4.04551C15.4826 3.92449 15.5992 3.83931 15.7324 3.80439C16.0724 3.71521 16.5166 3.76701 16.8674 3.77846C18.7631 3.84033 20.7475 4.23393 22.3862 5.22841C23.8418 6.11176 24.9232 7.46116 25.3266 9.13001C25.3908 9.39536 25.4338 9.66351 25.4759 9.93301Z" fill="white"/>
<path d="M8.0403 30.0772C7.95145 29.9573 7.8813 29.7822 7.8168 29.6463C7.64547 29.2881 7.49192 28.9225 7.35615 28.5495C7.22042 28.1764 7.10314 27.7976 7.0043 27.4131C6.2906 24.6066 6.5569 21.4387 8.0578 18.9244C8.09027 18.8699 8.12332 18.8157 8.15695 18.7619C8.19055 18.7081 8.22474 18.6546 8.2595 18.6015C8.29424 18.5484 8.32952 18.4956 8.36535 18.4433C8.40122 18.3909 8.43762 18.3389 8.47455 18.2873C8.51149 18.2357 8.54895 18.1845 8.58695 18.1337C8.62499 18.0828 8.66354 18.0324 8.7026 17.9824C8.74167 17.9324 8.78127 17.8828 8.8214 17.8337C8.8615 17.7845 8.90214 17.7357 8.9433 17.6874C8.98444 17.6391 9.02607 17.5912 9.0682 17.5438C9.11037 17.4963 9.15302 17.4493 9.19615 17.4028C9.23929 17.3562 9.2829 17.3101 9.327 17.2645C9.3711 17.2188 9.41569 17.1737 9.46075 17.129C9.50579 17.0843 9.5513 17.04 9.5973 16.9963C9.64327 16.9526 9.6897 16.9093 9.7366 16.8666C9.78347 16.8238 9.8308 16.7815 9.8786 16.7397C9.92637 16.6979 9.97457 16.6567 10.0232 16.616C10.0719 16.5752 10.121 16.5349 10.1705 16.4952C10.2199 16.4555 10.2698 16.4163 10.3202 16.3776C10.3705 16.3389 10.4212 16.3008 10.4723 16.2632C10.5234 16.2255 10.5749 16.1884 10.6268 16.1519C10.6787 16.1154 10.731 16.0794 10.7836 16.044C10.8363 16.0086 10.8893 15.9737 10.9427 15.9394C10.9961 15.905 11.0498 15.8713 11.1039 15.8381C11.158 15.8049 11.2124 15.7723 11.2672 15.7402C11.322 15.7082 11.3771 15.6767 11.4325 15.6458C11.4879 15.6149 11.5437 15.5846 11.5998 15.5549C11.6559 15.5252 11.7122 15.4961 11.7689 15.4676C11.8256 15.439 11.8826 15.4111 11.9399 15.3837C11.9972 15.3564 12.0547 15.3297 12.1126 15.3036C12.1704 15.2774 12.2285 15.2519 12.2869 15.227C12.3452 15.2021 12.4039 15.1778 12.4628 15.1541C12.5216 15.1304 12.5807 15.1074 12.6401 15.085C13.1528 14.8891 13.6788 14.7518 14.2104 14.6176C14.0565 15.0988 13.9183 15.5731 13.8214 16.0693C13.3516 18.4745 13.5735 21.0312 13.9677 23.4318C13.9647 23.656 13.9078 23.9199 13.8877 24.1504C13.755 25.6681 13.4346 26.9238 12.3475 28.0577C13.3789 28.4784 13.9569 29.0294 14.3953 30.0659C15.0061 31.5099 15.0897 33.1677 14.9875 34.7146C14.9697 34.9845 14.965 35.3942 14.8852 35.6459C14.6575 35.5759 14.0085 35.3011 13.8181 35.3012C13.6308 35.1603 13.3981 35.0761 13.1855 34.9781C12.8406 34.8192 12.4753 34.6489 12.1618 34.4333C10.5056 33.5293 8.91645 31.7327 8.0403 30.0772Z" fill="#FDB5AD"/>
<path d="M8.04028 30.0772C8.08073 30.0488 8.08853 30.0363 8.14003 30.0449C8.30063 30.0718 8.63003 30.2877 8.80058 30.3615C8.89998 30.4055 9.00053 30.4468 9.10223 30.4852C9.20393 30.5236 9.30663 30.5591 9.41033 30.5917C9.514 30.6243 9.61852 30.6541 9.72388 30.6809C9.82925 30.7076 9.93527 30.7314 10.0419 30.7523C10.1486 30.7731 10.2558 30.791 10.3635 30.8058C10.4712 30.8206 10.5793 30.8324 10.6876 30.8412C10.796 30.85 10.9045 30.8557 11.0131 30.8584C11.1218 30.8611 11.2305 30.8608 11.3391 30.8574C11.3237 31.5464 11.5141 32.3821 11.7082 33.0449C11.762 33.2287 11.8175 33.414 11.8891 33.5917C11.956 33.7574 12.1984 34.2329 12.2158 34.3632C12.2177 34.3779 12.211 34.3924 12.2086 34.407L12.1617 34.4333C10.5056 33.5293 8.91643 31.7327 8.04028 30.0772Z" fill="#FDABA1"/>
<path d="M10.2389 19.1594C10.2753 19.4066 10.0944 19.9593 10.0428 20.228C9.97575 20.5765 9.91195 20.932 9.8664 21.2838C9.73385 22.3079 9.8709 23.2947 10.1674 24.2791C10.2733 24.6308 10.4091 24.9746 10.5001 25.3306C10.6484 25.9112 10.7617 26.7108 10.4275 27.252C10.3008 27.4573 10.0894 27.6285 9.84905 27.6754C9.5632 27.7311 9.3116 27.6056 9.07975 27.4544C8.9596 27.3668 8.85495 27.2622 8.75875 27.1492C8.05325 26.3209 7.9176 24.9772 8.00325 23.9307C8.1451 22.1968 8.88755 20.3061 10.2389 19.1594Z" fill="#FFCDC6"/>
<path d="M15.4183 4.81793C15.5846 5.45991 15.7453 6.09166 15.9632 6.71906C16.6302 8.63921 17.7563 10.6135 19.5508 11.6778C19.6441 11.7323 19.739 11.7841 19.8353 11.8332C19.9316 11.8822 20.0292 11.9284 20.1282 11.9719C20.2271 12.0154 20.3273 12.056 20.4286 12.0937C20.5298 12.1314 20.6321 12.1662 20.7354 12.1981C20.8387 12.23 20.9428 12.2589 21.0477 12.2848C21.1526 12.3107 21.2582 12.3336 21.3645 12.3534C21.4707 12.3733 21.5775 12.3901 21.6847 12.4038C21.7919 12.4176 21.8994 12.4282 22.0072 12.4358C21.6405 12.4422 21.2753 12.4481 20.9102 12.4045C19.7952 12.271 18.6641 11.7677 17.7879 11.0712C16.3007 9.88886 15.4793 8.05786 15.0132 6.25806C14.8893 5.77966 14.778 5.30171 14.7202 4.81027C14.8857 4.81152 15.2936 4.87742 15.4183 4.81793Z" fill="#6F927E"/>
<path d="M16.6399 4.97126L16.6506 4.93306C16.7761 4.88757 17.13 4.94326 17.2734 4.95385C18.5995 5.05174 19.917 5.29574 21.1281 5.86344C22.4287 6.47304 23.5433 7.49009 24.0415 8.86184C24.2651 9.47769 24.3988 10.2181 24.3252 10.8735L23.9298 11.0334C23.8422 11.0638 23.7543 11.0942 23.6651 11.1194C22.5444 11.4364 21.2675 11.3089 20.249 10.7396C18.1818 9.58414 17.2448 7.12564 16.6399 4.97126Z" fill="#6F927E"/>
<path d="M16.6399 4.97126L16.6506 4.93306C16.7761 4.88757 17.13 4.94326 17.2734 4.95385C18.5995 5.05174 19.917 5.29574 21.1281 5.86344C22.4287 6.47304 23.5433 7.49009 24.0415 8.86184C24.2651 9.47769 24.3988 10.2181 24.3252 10.8735L23.9298 11.0334C23.8549 10.0871 23.6045 9.22374 23.0908 8.41954C22.0045 6.71869 20.0047 5.76959 18.1121 5.27624C17.6251 5.14929 17.1295 5.08044 16.6399 4.97126Z" fill="#FC968A"/>
<path d="M14.2104 14.6176C15.8236 14.3463 17.2599 14.348 18.824 14.8738C19.189 14.9965 19.5383 15.1606 19.9004 15.2908C20.4308 15.4816 20.9994 15.532 21.5594 15.5195C21.7994 15.6793 22.0756 15.788 22.3248 15.9351C19.4557 16.9596 17.4054 18.7684 16.094 21.5328C15.2035 23.4102 14.9398 25.1467 14.9299 27.204C14.8026 27.0183 14.7489 26.7198 14.6862 26.503C14.3932 25.4891 14.172 24.4663 13.9677 23.4318C13.5735 21.0312 13.3516 18.4745 13.8214 16.0693C13.9183 15.5731 14.0565 15.0988 14.2104 14.6176Z" fill="#E97C77"/>
<path d="M13.9676 23.4318C14.1719 24.4663 14.3931 25.4891 14.6861 26.503C14.7488 26.7198 14.8025 27.0183 14.9298 27.204C14.9855 27.8053 15.0397 28.4014 15.1619 28.9938C15.5512 30.8812 16.5064 32.6828 18.0028 33.922C18.3232 34.1834 18.6599 34.4218 19.013 34.6372C19.0079 34.641 19.0029 34.6449 18.9978 34.6487C18.777 34.8087 18.4697 34.8928 18.2255 35.0198C17.4595 35.4185 16.854 36.0703 16.4141 36.8038C16.3891 36.8455 16.3875 36.8857 16.384 36.933C16.2879 36.1238 16.3369 35.3658 16.4104 34.5579C16.429 34.3539 16.4432 34.1554 16.2988 33.9903C16.1874 33.8629 16.0323 33.7792 15.8612 33.7749C15.8432 33.7745 15.8253 33.7751 15.8075 33.7765C15.7896 33.7779 15.7718 33.7802 15.7542 33.7834C15.7365 33.7866 15.719 33.7906 15.7018 33.7956C15.6845 33.8005 15.6676 33.8062 15.6509 33.8128C15.6342 33.8194 15.6179 33.8268 15.6019 33.835C15.586 33.8432 15.5705 33.8521 15.5554 33.8619C15.5403 33.8716 15.5258 33.882 15.5118 33.8932C15.4977 33.9044 15.4843 33.9162 15.4714 33.9287C15.1608 34.2295 15.1833 35.304 15.1688 35.7364L14.8851 35.6459C14.9649 35.3942 14.9696 34.9845 14.9874 34.7146C15.0896 33.1677 15.006 31.5099 14.3952 30.0659C13.9568 29.0294 13.3788 28.4784 12.3474 28.0577C13.4345 26.9238 13.7549 25.6681 13.8876 24.1504C13.9077 23.9199 13.9646 23.656 13.9676 23.4318Z" fill="#FECBC4"/>
<path d="M22.9553 20.7504C22.8181 20.7348 22.6851 20.7513 22.5559 20.8002C22.345 20.9364 22.1279 21.0614 21.9055 21.1752C21.7516 21.3252 21.6013 21.4754 21.4553 21.6254C21.3501 21.6434 21.25 21.6764 21.1555 21.725C20.8876 22.0096 20.6209 22.2927 20.3557 22.5746C20.3083 22.5988 20.2579 22.6075 20.2053 22.6C20.201 22.7088 20.168 22.8087 20.1057 22.8998C19.7665 23.183 19.4748 23.4999 19.2307 23.85C18.5562 24.9832 18.0891 26.2003 17.8303 27.5004C17.797 28.1169 17.797 28.7335 17.8303 29.35C17.8942 29.6774 17.9029 30.0023 17.8557 30.3246C18.0534 30.7619 18.2453 31.2038 18.4309 31.6498C18.4974 31.6831 18.5636 31.7171 18.6301 31.7504C18.803 31.9947 18.9115 32.2612 18.9553 32.5502C19.0141 32.5393 19.0645 32.5557 19.1057 32.6C19.2252 32.7733 19.3667 32.9235 19.5305 33.0502C19.5723 33.1426 19.6142 33.234 19.6555 33.3246C19.8286 33.4068 19.9788 33.5153 20.1057 33.6498C20.2697 33.7893 20.4199 33.9395 20.5559 34.1C20.4873 34.1079 20.4204 34.0991 20.3557 34.0746C20.0296 33.92 19.7127 33.7533 19.4055 33.5746C19.1007 33.3728 18.8175 33.1478 18.5559 32.8998C17.4237 31.8855 16.6901 30.6355 16.3557 29.1498V27.8998C16.34 27.7063 16.3565 27.523 16.4055 27.35V27.3002C16.4794 26.9934 16.5375 26.6764 16.5803 26.35C16.6645 26.0976 16.7479 25.8475 16.8303 25.6C16.982 25.4493 17.0402 25.2661 17.0051 25.0502V24.9496C17.2864 24.355 17.6451 23.8053 18.0803 23.3002C18.2683 23.0868 18.4769 22.9035 18.7053 22.7504C18.7425 22.7463 18.7791 22.7448 18.8147 22.7465C18.7773 22.7444 18.7386 22.746 18.6995 22.7504C18.9585 22.4832 19.2425 22.241 19.5501 22.0248C19.7364 21.9696 19.8867 21.8698 20.0003 21.725C20.1924 21.6707 20.3594 21.5786 20.5003 21.4496C20.8492 21.3166 21.1993 21.1837 21.5501 21.0502C21.5321 21.1437 21.4817 21.2184 21.3997 21.2748C21.2153 21.3302 21.032 21.3884 20.8499 21.4496C20.8135 21.5343 20.7631 21.6099 20.6995 21.6752C20.7161 21.6919 20.7336 21.7084 20.7503 21.725C20.2556 21.7145 19.8552 21.8978 19.5501 22.2748C19.3549 22.2954 19.2716 22.404 19.3001 22.6C19.2714 22.6052 19.2483 22.6205 19.2298 22.6449C19.23 22.6466 19.2305 22.6482 19.2307 22.6498C19.2499 22.6221 19.2751 22.6055 19.3059 22.6C19.2774 22.404 19.3608 22.2954 19.5559 22.2748C19.861 21.8979 20.2607 21.7146 20.7551 21.725L20.7053 21.6752C20.7689 21.6099 20.8193 21.5343 20.8557 21.4496C21.0379 21.3884 21.2212 21.3302 21.4055 21.2748C21.4875 21.2184 21.538 21.1437 21.5559 21.0502C21.5615 21.0194 21.5779 20.9942 21.6057 20.975C22.0067 20.8775 22.3898 20.7524 22.7551 20.6H22.9553V20.7504ZM19.1262 22.6049C19.1574 22.6858 19.1569 22.7662 19.1253 22.8471C19.1269 22.8481 19.1286 22.849 19.1301 22.85C19.1635 22.7667 19.1635 22.6834 19.1301 22.6C19.1291 22.6019 19.1272 22.6031 19.1262 22.6049ZM19.1614 22.4652C19.132 22.4553 19.095 22.5004 19.0501 22.6C19.0594 22.6322 19.0705 22.6455 19.0842 22.643C19.0733 22.6404 19.0638 22.6271 19.0559 22.6C19.098 22.5066 19.133 22.4623 19.1614 22.4652Z" fill="#FECBC4"/>
<path d="M16.3758 29.0691C15.806 27.2094 16.1075 24.6904 16.7786 22.8929C17.6678 20.5112 19.3514 18.5034 21.6857 17.4403C24.1917 16.2988 26.935 16.1208 29.5261 17.0924C29.6318 17.1332 29.7369 17.1757 29.8413 17.22C29.9457 17.2643 30.0493 17.3103 30.1521 17.3581C30.255 17.4058 30.357 17.4552 30.4582 17.5063C30.5594 17.5574 30.6598 17.6102 30.7592 17.6646C30.8587 17.7191 30.9572 17.7751 31.0548 17.8328C31.1524 17.8905 31.249 17.9498 31.3447 18.0108C31.4403 18.0717 31.5349 18.1341 31.6285 18.1982C31.722 18.2622 31.8145 18.3278 31.9059 18.3949C31.9973 18.462 32.0876 18.5306 32.1767 18.6007C32.2658 18.6708 32.3537 18.7424 32.4405 18.8154C32.5272 18.8884 32.6127 18.9628 32.697 19.0387C32.7813 19.1145 32.8643 19.1918 32.946 19.2704C33.0277 19.349 33.1081 19.4289 33.1872 19.5102C33.2662 19.5914 33.3439 19.674 33.4203 19.7579C33.4966 19.8417 33.5715 19.9268 33.645 20.0131C33.7185 20.0994 33.7906 20.1869 33.8612 20.2757C34.0952 20.5671 34.3675 20.9008 34.5226 21.2413C34.2268 21.1611 33.9374 21.051 33.6445 20.9602C33.1733 20.8141 32.6787 20.6859 32.1963 20.5834C29.0459 19.9139 25.6499 19.7998 22.5366 20.7175C21.7327 20.9544 20.9369 21.2592 20.2083 21.6771C18.4853 22.6654 17.1795 24.1132 16.6532 26.0614C16.6087 26.2296 16.5695 26.3989 16.5355 26.5694C16.5014 26.74 16.4727 26.9114 16.4492 27.0837C16.4256 27.256 16.4074 27.4288 16.3946 27.6022C16.3817 27.7757 16.3741 27.9493 16.3719 28.1232C16.3678 28.4264 16.437 28.7741 16.3758 29.0691Z" fill="#E97C77"/>
</g>
<path d="M46.5198 41.6792C45.9918 41.6792 45.6065 41.558 45.3639 41.3156C45.1213 41.0733 45 40.6883 45 40.1608V16.5715C45 16.044 45.1213 15.6662 45.3639 15.4381C45.6065 15.1957 45.9918 15.0745 46.5198 15.0745H60.4546C60.8541 15.0745 61.1395 15.2242 61.3108 15.5236C61.4963 15.823 61.589 16.3078 61.589 16.9779V18.1327C61.589 18.8029 61.4963 19.2876 61.3108 19.587C61.1395 19.8864 60.8541 20.0361 60.4546 20.0361H50.865V25.5538H59.4271C59.8267 25.5538 60.1121 25.7035 60.2833 26.0029C60.4688 26.3024 60.5616 26.7871 60.5616 27.4572V28.6335C60.5616 29.3036 60.4688 29.7883 60.2833 30.0878C60.1121 30.3872 59.8267 30.5369 59.4271 30.5369H50.865V36.6962H60.476C60.8755 36.6962 61.1609 36.8459 61.3322 37.1453C61.5177 37.4447 61.6104 37.9223 61.6104 38.5782V39.7758C61.6104 40.4459 61.5177 40.9307 61.3322 41.2301C61.1609 41.5295 60.8755 41.6792 60.476 41.6792H46.5198Z" fill="white"/>
<path d="M71.1032 42C70.1186 42 69.1411 41.8931 68.1707 41.6792C67.2003 41.4653 66.3941 41.1588 65.7519 40.7596C65.124 40.3604 64.8101 39.9041 64.8101 39.3909C64.8101 39.0772 64.9243 38.6851 65.1526 38.2146C65.3809 37.7441 65.652 37.3378 65.966 36.9956C66.2942 36.6391 66.5796 36.4609 66.8222 36.4609C66.9506 36.4609 67.2289 36.5607 67.657 36.7603C68.1564 36.9884 68.6345 37.1738 69.0911 37.3164C69.5478 37.4589 70.0686 37.5302 70.6537 37.5302C71.3815 37.5302 71.9309 37.3948 72.3019 37.1239C72.6729 36.853 72.8585 36.4538 72.8585 35.9263C72.8585 35.527 72.7443 35.1991 72.516 34.9425C72.3019 34.6716 72.0237 34.4506 71.6812 34.2795C71.3387 34.1084 70.8535 33.9017 70.2256 33.6593L69.6049 33.424C68.7915 33.1104 68.078 32.7539 67.4643 32.3547C66.8507 31.9555 66.3299 31.3781 65.9018 30.6224C65.4737 29.8525 65.2596 28.883 65.2596 27.7139C65.2596 26.4164 65.5379 25.3043 66.0944 24.3776C66.6652 23.4366 67.4715 22.7237 68.5132 22.2389C69.5549 21.7399 70.7822 21.4904 72.1949 21.4904C73.0083 21.4904 73.8574 21.5688 74.7421 21.7257C75.6269 21.8825 76.3689 22.1249 76.9683 22.4528C77.5819 22.7807 77.8887 23.1942 77.8887 23.6932C77.8887 23.9784 77.7959 24.3633 77.6104 24.8481C77.4392 25.3328 77.2251 25.7606 76.9683 26.1313C76.7114 26.502 76.4688 26.6873 76.2405 26.6873C76.1691 26.6873 75.9694 26.6232 75.6411 26.4948C75.1988 26.3095 74.7707 26.1669 74.3568 26.0671C73.9573 25.953 73.4935 25.896 72.9655 25.896C71.6241 25.896 70.9534 26.338 70.9534 27.222C70.9534 27.6212 71.0747 27.9634 71.3173 28.2485C71.5741 28.5337 71.8881 28.7689 72.2591 28.9543C72.6301 29.1396 73.151 29.3606 73.8217 29.6173C74.5923 29.9309 75.0703 30.1305 75.2558 30.2161C76.2548 30.7151 77.0539 31.3781 77.6532 32.205C78.2668 33.0177 78.5737 34.1084 78.5737 35.4771C78.5737 36.7746 78.2811 37.9152 77.696 38.899C77.111 39.8827 76.2548 40.6455 75.1274 41.1873C74.0001 41.7291 72.6587 42 71.1032 42Z" fill="white"/>
<path d="M90.9347 42C87.6954 42 85.2909 41.1659 83.7212 39.4978C82.1515 37.8154 81.3666 35.2704 81.3666 31.8628C81.3666 28.4267 82.1586 25.839 83.7426 24.0996C85.3266 22.3601 87.7953 21.4904 91.1488 21.4904C92.1049 21.4904 93.0681 21.5973 94.0385 21.8112C95.0231 22.0108 95.8365 22.3102 96.4787 22.7094C97.1351 23.0944 97.4633 23.5649 97.4633 24.1209C97.4633 24.3491 97.3349 24.7055 97.078 25.1903C96.8354 25.675 96.55 26.1099 96.2218 26.4948C95.9079 26.8655 95.6439 27.0509 95.4298 27.0509C95.3299 27.0509 95.1087 26.9511 94.7663 26.7515C94.224 26.4948 93.7103 26.2952 93.2251 26.1527C92.7399 25.9958 92.1477 25.9174 91.4485 25.9174C89.9501 25.9174 88.8584 26.395 88.1735 27.3503C87.4885 28.2913 87.146 29.7456 87.146 31.7131C87.146 33.6949 87.4671 35.1635 88.1092 36.1187C88.7657 37.0597 89.8074 37.5302 91.2344 37.5302C92.0193 37.5302 92.7042 37.4518 93.2893 37.295C93.8744 37.1239 94.4309 36.91 94.9589 36.6534C95.0588 36.6106 95.1801 36.5607 95.3228 36.5037C95.4655 36.4467 95.5725 36.4181 95.6439 36.4181C95.9007 36.4181 96.179 36.6035 96.4787 36.9742C96.7926 37.3306 97.0566 37.7441 97.2707 38.2146C97.499 38.6851 97.6132 39.0487 97.6132 39.3053C97.6132 39.9612 97.1851 40.4887 96.3288 40.8879C95.4726 41.2871 94.5165 41.5723 93.4605 41.7434C92.4046 41.9145 91.5626 42 90.9347 42Z" fill="white"/>
<path d="M109.503 42C106.492 42 104.195 41.116 102.611 39.3481C101.041 37.5801 100.256 35.0352 100.256 31.7131C100.256 28.4054 101.041 25.8746 102.611 24.1209C104.195 22.3673 106.492 21.4904 109.503 21.4904C112.514 21.4904 114.798 22.3673 116.353 24.1209C117.923 25.8604 118.708 28.3911 118.708 31.7131C118.708 35.0352 117.923 37.5801 116.353 39.3481C114.798 41.116 112.514 42 109.503 42ZM109.503 37.5302C110.702 37.5302 111.58 37.0455 112.136 36.076C112.707 35.1064 112.992 33.6522 112.992 31.7131C112.992 29.7883 112.707 28.3412 112.136 27.3717C111.58 26.4022 110.702 25.9174 109.503 25.9174C107.134 25.9174 105.95 27.8493 105.95 31.7131C105.95 33.6379 106.235 35.0922 106.806 36.076C107.391 37.0455 108.29 37.5302 109.503 37.5302Z" fill="white"/>
<path d="M125.396 41.7434C123.884 41.7434 123.127 41.3442 123.127 40.5457V28.4838C123.127 26.6588 123.006 25.1404 122.763 23.9285C122.692 23.5435 122.656 23.2726 122.656 23.1158C122.656 22.8306 122.92 22.6025 123.448 22.4314C123.991 22.2461 124.597 22.1106 125.268 22.0251C125.953 21.9395 126.502 21.8968 126.916 21.8968C127.358 21.8968 127.665 22.0607 127.836 22.3886C128.022 22.7166 128.186 23.1942 128.329 23.8215L128.457 24.3776C128.942 23.4936 129.499 22.795 130.127 22.2817C130.769 21.7542 131.59 21.4904 132.588 21.4904C133.416 21.4904 133.987 21.7043 134.301 22.132C134.615 22.5455 134.772 23.016 134.772 23.5435C134.772 23.8287 134.722 24.235 134.622 24.7625C134.522 25.2758 134.379 25.7321 134.194 26.1313C134.008 26.5305 133.801 26.7301 133.573 26.7301C133.416 26.7301 133.181 26.6873 132.867 26.6018C132.439 26.4877 132.075 26.4307 131.775 26.4307C131.076 26.4307 130.462 26.6303 129.934 27.0295C129.42 27.4145 129.028 27.8493 128.757 28.3341V40.5457C128.757 41.3442 127.986 41.7434 126.445 41.7434H125.396Z" fill="white"/>
<path d="M143.601 42C141.789 42 140.404 41.4939 139.448 40.4816C138.507 39.455 138.036 37.9009 138.036 35.8193V26.2382H137.436C137.037 26.2382 136.744 26.0885 136.559 25.7891C136.387 25.4897 136.302 25.0049 136.302 24.3348V23.6932C136.302 23.0231 136.387 22.5383 136.559 22.2389C136.744 21.9395 137.037 21.7898 137.436 21.7898H138.036L138.528 18.1755C138.642 17.3771 139.327 16.9779 140.583 16.9779H141.782C142.438 16.9779 142.916 17.0777 143.216 17.2773C143.53 17.4769 143.687 17.7763 143.687 18.1755V21.7898H145.549C145.948 21.7898 146.234 21.9395 146.405 22.2389C146.591 22.5383 146.683 23.0231 146.683 23.6932V24.3348C146.683 25.0049 146.591 25.4897 146.405 25.7891C146.234 26.0885 145.948 26.2382 145.549 26.2382H143.687V35.8835C143.687 36.468 143.786 36.8886 143.986 37.1453C144.2 37.4019 144.55 37.5302 145.035 37.5302C145.178 37.5302 145.37 37.5089 145.613 37.4661C145.856 37.409 146.006 37.3805 146.063 37.3805C146.291 37.3805 146.491 37.573 146.662 37.958C146.847 38.3287 146.99 38.7421 147.09 39.1984C147.204 39.6546 147.261 39.9612 147.261 40.118C147.261 41.3727 146.041 42 143.601 42Z" fill="white"/>
<path d="M162.833 42C158.552 42 155.391 40.8879 153.351 38.6637C151.324 36.4395 150.311 32.9821 150.311 28.2913C150.311 19.2662 154.549 14.7537 163.026 14.7537C164.182 14.7537 165.38 14.8677 166.622 15.0959C167.863 15.324 168.898 15.6448 169.726 16.0583C170.568 16.4575 170.989 16.9066 170.989 17.4056C170.989 17.762 170.846 18.2325 170.56 18.8171C170.275 19.3874 169.933 19.8936 169.533 20.3355C169.148 20.7775 168.805 20.9985 168.506 20.9985C168.434 20.9985 168.242 20.9272 167.928 20.7847C167.243 20.4995 166.522 20.2643 165.766 20.0789C165.024 19.8793 164.075 19.7795 162.919 19.7795C160.678 19.7795 159.016 20.4924 157.931 21.9181C156.861 23.3296 156.326 25.4683 156.326 28.3341C156.326 31.1999 156.868 33.3599 157.953 34.8142C159.037 36.2684 160.664 36.9956 162.833 36.9956C163.96 36.9956 164.938 36.8815 165.766 36.6534C166.608 36.4253 167.428 36.133 168.227 35.7765C168.27 35.7623 168.399 35.7124 168.613 35.6268C168.827 35.527 168.984 35.4771 169.083 35.4771C169.454 35.4771 169.811 35.6981 170.154 36.1401C170.496 36.5678 170.774 37.0597 170.989 37.6158C171.203 38.1576 171.31 38.5497 171.31 38.792C171.31 39.4907 170.839 40.0823 169.897 40.5671C168.969 41.0519 167.842 41.4154 166.515 41.6578C165.202 41.8859 163.975 42 162.833 42Z" fill="white"/>
<path d="M177.271 41.7434C175.758 41.7434 175.002 41.3442 175.002 40.5457V28.4838C175.002 26.6588 174.88 25.1404 174.638 23.9285C174.566 23.5435 174.531 23.2726 174.531 23.1158C174.531 22.8306 174.795 22.6025 175.323 22.4314C175.865 22.2461 176.471 22.1106 177.142 22.0251C177.827 21.9395 178.376 21.8968 178.79 21.8968C179.233 21.8968 179.539 22.0607 179.711 22.3886C179.896 22.7166 180.06 23.1942 180.203 23.8215L180.331 24.3776C180.817 23.4936 181.373 22.795 182.001 22.2817C182.643 21.7542 183.464 21.4904 184.463 21.4904C185.29 21.4904 185.861 21.7043 186.175 22.132C186.489 22.5455 186.646 23.016 186.646 23.5435C186.646 23.8287 186.596 24.235 186.496 24.7625C186.396 25.2758 186.254 25.7321 186.068 26.1313C185.883 26.5305 185.676 26.7301 185.447 26.7301C185.29 26.7301 185.055 26.6873 184.741 26.6018C184.313 26.4877 183.949 26.4307 183.649 26.4307C182.95 26.4307 182.336 26.6303 181.808 27.0295C181.295 27.4145 180.902 27.8493 180.631 28.3341V40.5457C180.631 41.3442 179.861 41.7434 178.319 41.7434H177.271Z" fill="white"/>
<path d="M194.833 42C192.921 42 191.508 41.501 190.595 40.503C189.682 39.4907 189.225 37.9294 189.225 35.8193V22.9233C189.225 22.5241 189.41 22.2247 189.781 22.0251C190.152 21.8255 190.73 21.7257 191.515 21.7257H192.564C193.349 21.7257 193.927 21.8255 194.298 22.0251C194.669 22.2247 194.854 22.5241 194.854 22.9233V34.9639C194.854 35.748 195.033 36.3397 195.39 36.7389C195.746 37.1382 196.331 37.3378 197.145 37.3378C197.844 37.3378 198.451 37.1168 198.964 36.6748C199.492 36.2185 199.899 35.7053 200.184 35.135V22.9233C200.184 22.5241 200.37 22.2247 200.741 22.0251C201.112 21.8255 201.69 21.7257 202.475 21.7257H203.524C204.308 21.7257 204.886 21.8255 205.257 22.0251C205.628 22.2247 205.814 22.5241 205.814 22.9233V34.9639C205.814 36.1615 205.842 37.1025 205.9 37.7869C205.971 38.457 206.057 39.0843 206.156 39.6689C206.228 40.0538 206.263 40.3247 206.263 40.4816C206.263 40.7667 205.999 41.002 205.471 41.1873C204.943 41.3727 204.337 41.5081 203.652 41.5937C202.981 41.6792 202.439 41.722 202.025 41.722C201.569 41.722 201.24 41.5438 201.041 41.1873C200.855 40.8166 200.705 40.2962 200.591 39.6261L200.484 39.0914C199.885 39.9041 199.078 40.5956 198.065 41.1659C197.066 41.722 195.989 42 194.833 42Z" fill="white"/>
<path d="M216.099 42C215.114 42 214.137 41.8931 213.166 41.6792C212.196 41.4653 211.39 41.1588 210.747 40.7596C210.12 40.3604 209.806 39.9041 209.806 39.3909C209.806 39.0772 209.92 38.6851 210.148 38.2146C210.376 37.7441 210.648 37.3378 210.961 36.9956C211.29 36.6391 211.575 36.4609 211.818 36.4609C211.946 36.4609 212.224 36.5607 212.652 36.7603C213.152 36.9884 213.63 37.1738 214.087 37.3164C214.543 37.4589 215.064 37.5302 215.649 37.5302C216.377 37.5302 216.926 37.3948 217.297 37.1239C217.668 36.853 217.854 36.4538 217.854 35.9263C217.854 35.527 217.74 35.1991 217.511 34.9425C217.297 34.6716 217.019 34.4506 216.677 34.2795C216.334 34.1084 215.849 33.9017 215.221 33.6593L214.6 33.424C213.787 33.1104 213.073 32.7539 212.46 32.3547C211.846 31.9555 211.325 31.3781 210.897 30.6224C210.469 29.8525 210.255 28.883 210.255 27.7139C210.255 26.4164 210.533 25.3043 211.09 24.3776C211.661 23.4366 212.467 22.7237 213.509 22.2389C214.55 21.7399 215.778 21.4904 217.19 21.4904C218.004 21.4904 218.853 21.5688 219.738 21.7257C220.622 21.8825 221.364 22.1249 221.964 22.4528C222.577 22.7807 222.884 23.1942 222.884 23.6932C222.884 23.9784 222.791 24.3633 222.606 24.8481C222.435 25.3328 222.221 25.7606 221.964 26.1313C221.707 26.502 221.464 26.6873 221.236 26.6873C221.165 26.6873 220.965 26.6232 220.637 26.4948C220.194 26.3095 219.766 26.1669 219.352 26.0671C218.953 25.953 218.489 25.896 217.961 25.896C216.62 25.896 215.949 26.338 215.949 27.222C215.949 27.6212 216.07 27.9634 216.313 28.2485C216.57 28.5337 216.884 28.7689 217.255 28.9543C217.626 29.1396 218.146 29.3606 218.817 29.6173C219.588 29.9309 220.066 30.1305 220.251 30.2161C221.25 30.7151 222.049 31.3781 222.649 32.205C223.262 33.0177 223.569 34.1084 223.569 35.4771C223.569 36.7746 223.277 37.9152 222.692 38.899C222.106 39.8827 221.25 40.6455 220.123 41.1873C218.996 41.7291 217.654 42 216.099 42Z" fill="white"/>
<path d="M229.573 41.7434C228.046 41.7434 227.283 41.3442 227.283 40.5457V14.2404C227.283 13.8269 227.468 13.5204 227.839 13.3208C228.21 13.1069 228.788 13 229.573 13H230.622C232.149 13 232.912 13.4135 232.912 14.2404V24.0568C233.54 23.3011 234.318 22.6881 235.245 22.2176C236.187 21.7328 237.193 21.4904 238.263 21.4904C240.176 21.4904 241.61 21.9966 242.566 23.0089C243.522 24.0069 244 25.5467 244 27.6283V40.5457C244 41.3442 243.244 41.7434 241.731 41.7434H240.682C239.141 41.7434 238.37 41.3442 238.37 40.5457V28.4838C238.37 26.9154 237.557 26.1313 235.93 26.1313C235.245 26.1313 234.639 26.3594 234.111 26.8156C233.597 27.2576 233.198 27.7638 232.912 28.3341V40.5457C232.912 41.3442 232.149 41.7434 230.622 41.7434H229.573Z" fill="white"/>
<defs>
<clipPath id="clip0_1521_6442">
<rect width="44" height="44" fill="white"/>
</clipPath>
</defs>
</svg>
